<?xml version="1.0" encoding="UTF-8"?><svg id="Ebene_1" xmlns="http://www.w3.org/2000/svg" viewBox="0 0 992.13 283.46"><defs><style>.cls-1{fill:#101022;}.cls-2{fill:#5a5664;}</style></defs><path class="cls-1" d="m275.24,123.23c-2.99-3.34-7.21-5-12.67-5-4.51,0-7.79.86-9.85,2.57-2.06,1.71-3.09,4.02-3.09,6.92,0,1.47.26,2.7.78,3.67.52.97,1.33,1.81,2.44,2.5,1.11.69,2.5,1.28,4.19,1.75,1.69.48,3.73.98,6.11,1.5,2.47.52,4.71,1.09,6.73,1.72,2.01.63,3.73,1.42,5.13,2.37,1.41.95,2.49,2.12,3.25,3.51.76,1.39,1.14,3.1,1.14,5.13s-.4,3.81-1.2,5.33c-.8,1.52-1.93,2.79-3.38,3.8-1.45,1.02-3.18,1.79-5.2,2.31-2.01.52-4.26.78-6.73.78-7.19,0-13.28-2.3-18.27-6.89l1.75-2.67c1.95,2.04,4.33,3.65,7.15,4.84,2.82,1.19,5.98,1.79,9.49,1.79,4.03,0,7.18-.74,9.46-2.21,2.28-1.47,3.41-3.71,3.41-6.69,0-1.52-.3-2.81-.91-3.87-.61-1.06-1.51-1.98-2.7-2.76-1.19-.78-2.7-1.45-4.52-2.02-1.82-.56-3.94-1.1-6.37-1.62-2.47-.52-4.65-1.07-6.53-1.66-1.88-.58-3.47-1.32-4.74-2.21-1.28-.89-2.24-1.96-2.89-3.22-.65-1.26-.98-2.84-.98-4.75,0-2.08.4-3.92,1.2-5.52.8-1.6,1.92-2.96,3.35-4.06,1.43-1.1,3.14-1.94,5.14-2.5,1.99-.56,4.2-.85,6.63-.85,2.99,0,5.65.44,8,1.33,2.34.89,4.46,2.24,6.37,4.06l-1.69,2.6Z"/><path class="cls-1" d="m326.79,118.55h-16.9v43.16h-3.31v-43.16h-16.9v-2.99h37.12v2.99Z"/><path class="cls-1" d="m341.09,161.71v-46.15h19.17c1.95,0,3.75.41,5.4,1.23,1.65.82,3.06,1.92,4.26,3.28,1.19,1.36,2.12,2.9,2.79,4.61.67,1.71,1.01,3.44,1.01,5.17s-.26,3.33-.78,4.91c-.52,1.58-1.26,3-2.21,4.26-.95,1.26-2.1,2.3-3.44,3.12-1.34.82-2.82,1.36-4.42,1.63l11.5,17.94h-3.83l-11.18-17.42h-14.95v17.42h-3.32Zm3.32-20.48h16.18c1.47,0,2.82-.32,4.03-.98,1.21-.65,2.25-1.5,3.12-2.57.87-1.06,1.53-2.27,1.98-3.64.46-1.36.68-2.76.68-4.19s-.27-2.89-.81-4.26c-.54-1.37-1.28-2.57-2.21-3.61-.93-1.04-2.02-1.87-3.25-2.5-1.24-.63-2.57-.94-4-.94h-15.73v22.69Z"/><path class="cls-1" d="m404.91,115.56h2.86l19.5,46.15h-3.51l-6.44-15.21h-22.03l-6.44,15.21h-3.57l19.63-46.15Zm11.5,28.21l-10.08-24.18-10.27,24.18h20.35Z"/><path class="cls-1" d="m444.04,161.71v-46.15h3.31v46.15h-3.31Z"/><path class="cls-1" d="m503.19,155.12c-4.42,5.23-9.64,6.92-15.54,6.92-3.12,0-6.01-.67-8.68-2.01-2.66-1.34-4.95-3.12-6.86-5.33-1.91-2.21-3.4-4.72-4.48-7.54-1.08-2.82-1.62-5.68-1.62-8.58s.53-5.96,1.59-8.77c1.06-2.82,2.53-5.31,4.42-7.48,1.88-2.17,4.13-3.89,6.73-5.17,2.6-1.28,5.44-1.92,8.52-1.92,2.3,0,4.37.25,6.21.75,1.84.5,3.49,1.19,4.94,2.08,1.45.89,2.71,1.95,3.77,3.19,1.06,1.23,1.96,2.59,2.7,4.06l-2.73,1.62c-1.56-3.03-3.63-5.23-6.21-6.6-2.58-1.36-5.49-2.05-8.74-2.05-2.73,0-5.2.58-7.41,1.75s-4.09,2.71-5.65,4.62c-1.56,1.91-2.75,4.07-3.58,6.5-.82,2.43-1.24,4.92-1.24,7.47,0,2.73.48,5.32,1.43,7.77.95,2.45,2.26,4.61,3.93,6.47,1.67,1.86,3.63,3.35,5.88,4.45,2.25,1.11,4.68,1.66,7.28,1.66,2.82,0,5.49-.65,8.03-1.95s5.79-3.93,7.31-7.17v-7.91h-10.47v-2.67h13.33v22.42h-2.86v-6.59Z"/><path class="cls-1" d="m560,115.56v46.15h-3.32v-22.1h-29.12v22.1h-3.32v-46.15h3.32v21.06h29.12v-21.06h3.32Z"/><path class="cls-1" d="m610.11,118.55h-16.9v43.16h-3.32v-43.16h-16.9v-2.99h37.11v2.99Z"/><path class="cls-1" d="m621.55,115.56l17.55,41.99,17.55-41.99h3.51l-19.5,46.15h-3.05l-19.57-46.15h3.51Z"/><path class="cls-1" d="m675.7,161.71v-46.15h3.32v46.15h-3.32Z"/><path class="cls-1" d="m725.1,123.23c-2.99-3.34-7.21-5-12.67-5-4.51,0-7.79.86-9.85,2.57-2.06,1.71-3.09,4.02-3.09,6.92,0,1.47.26,2.7.78,3.67.52.97,1.33,1.81,2.44,2.5,1.11.69,2.5,1.28,4.19,1.75,1.69.48,3.73.98,6.11,1.5,2.47.52,4.71,1.09,6.73,1.72,2.01.63,3.73,1.42,5.13,2.37,1.41.95,2.49,2.12,3.25,3.51.76,1.39,1.14,3.1,1.14,5.13s-.4,3.81-1.2,5.33c-.8,1.52-1.93,2.79-3.38,3.8-1.45,1.02-3.18,1.79-5.2,2.31-2.02.52-4.26.78-6.73.78-7.19,0-13.28-2.3-18.26-6.89l1.75-2.67c1.95,2.04,4.33,3.65,7.15,4.84,2.82,1.19,5.98,1.79,9.49,1.79,4.03,0,7.18-.74,9.46-2.21,2.28-1.47,3.41-3.71,3.41-6.69,0-1.52-.3-2.81-.91-3.87-.61-1.06-1.51-1.98-2.7-2.76-1.19-.78-2.7-1.45-4.52-2.02-1.82-.56-3.94-1.1-6.37-1.62-2.47-.52-4.65-1.07-6.53-1.66-1.89-.58-3.47-1.32-4.75-2.21-1.28-.89-2.24-1.96-2.89-3.22-.65-1.26-.97-2.84-.97-4.75,0-2.08.4-3.92,1.2-5.52.8-1.6,1.92-2.96,3.35-4.06,1.43-1.1,3.14-1.94,5.13-2.5,1.99-.56,4.2-.85,6.63-.85,2.99,0,5.66.44,8,1.33,2.34.89,4.46,2.24,6.37,4.06l-1.69,2.6Z"/><path class="cls-1" d="m746.03,161.71v-46.15h3.32v46.15h-3.32Z"/><path class="cls-1" d="m788.28,162.04c-3.21,0-6.13-.67-8.77-2.01-2.64-1.34-4.92-3.1-6.83-5.27-1.91-2.17-3.38-4.66-4.42-7.47-1.04-2.82-1.56-5.7-1.56-8.65s.55-6.02,1.66-8.84c1.1-2.82,2.62-5.31,4.55-7.48,1.93-2.17,4.21-3.89,6.86-5.17,2.64-1.28,5.5-1.92,8.58-1.92s6.14.68,8.81,2.05c2.67,1.37,4.94,3.15,6.82,5.36,1.89,2.21,3.35,4.71,4.39,7.51s1.56,5.62,1.56,8.48c0,3.12-.55,6.09-1.66,8.91-1.1,2.82-2.62,5.3-4.55,7.44-1.93,2.15-4.21,3.86-6.86,5.14-2.64,1.28-5.5,1.92-8.58,1.92Zm-18.26-23.4c0,2.64.44,5.19,1.33,7.64.89,2.45,2.14,4.62,3.77,6.5s3.56,3.39,5.82,4.52c2.25,1.13,4.72,1.69,7.41,1.69s5.28-.58,7.51-1.75,4.14-2.72,5.72-4.65c1.58-1.93,2.8-4.11,3.67-6.53.87-2.43,1.3-4.9,1.3-7.41,0-2.64-.45-5.19-1.36-7.64-.91-2.45-2.18-4.62-3.8-6.5-1.62-1.89-3.54-3.39-5.75-4.52-2.21-1.13-4.64-1.69-7.28-1.69-2.77,0-5.29.58-7.54,1.75-2.25,1.17-4.18,2.72-5.79,4.65-1.6,1.93-2.84,4.11-3.71,6.53-.87,2.43-1.3,4.9-1.3,7.41Z"/><path class="cls-1" d="m827.99,121.8v39.91h-3.32v-46.15h2.54l32.37,40.63v-40.63h3.32v46.15h-3.05l-31.85-39.91Z"/><path class="cls-1" d="m908.92,123.23c-2.99-3.34-7.21-5-12.67-5-4.51,0-7.79.86-9.85,2.57-2.06,1.71-3.09,4.02-3.09,6.92,0,1.47.26,2.7.78,3.67.52.97,1.33,1.81,2.44,2.5,1.11.69,2.5,1.28,4.19,1.75,1.69.48,3.73.98,6.11,1.5,2.47.52,4.71,1.09,6.73,1.72,2.01.63,3.73,1.42,5.13,2.37,1.41.95,2.49,2.12,3.25,3.51.76,1.39,1.14,3.1,1.14,5.13s-.4,3.81-1.2,5.33c-.8,1.52-1.93,2.79-3.38,3.8-1.45,1.02-3.18,1.79-5.2,2.31-2.02.52-4.26.78-6.73.78-7.19,0-13.28-2.3-18.26-6.89l1.75-2.67c1.95,2.04,4.33,3.65,7.15,4.84,2.82,1.19,5.98,1.79,9.49,1.79,4.03,0,7.18-.74,9.46-2.21,2.28-1.47,3.41-3.71,3.41-6.69,0-1.52-.3-2.81-.91-3.87-.61-1.06-1.51-1.98-2.7-2.76-1.19-.78-2.7-1.45-4.52-2.02-1.82-.56-3.94-1.1-6.37-1.62-2.47-.52-4.65-1.07-6.53-1.66-1.89-.58-3.47-1.32-4.75-2.21-1.28-.89-2.24-1.96-2.89-3.22-.65-1.26-.97-2.84-.97-4.75,0-2.08.4-3.92,1.2-5.52.8-1.6,1.92-2.96,3.35-4.06,1.43-1.1,3.14-1.94,5.13-2.5,1.99-.56,4.2-.85,6.63-.85,2.99,0,5.66.44,8,1.33,2.34.89,4.46,2.24,6.37,4.06l-1.69,2.6Z"/><polygon class="cls-1" points="161.85 80.46 161.85 99.41 200.15 115.8 175.22 80.47 161.85 80.46"/><polygon class="cls-2" points="161.86 61.53 161.85 80.46 217.8 80.46 161.86 61.53"/><polygon class="cls-1" points="35.1 115.8 142.56 115.8 117.62 80.47 35.1 115.8"/><polygon class="cls-1" points="161.85 244.63 183.08 173.23 161.85 143.15 161.85 244.63"/><polygon class="cls-2" points="117.62 80.47 183.08 173.23 200.15 115.8 117.62 80.47"/></svg>