<?xml version="1.0" encoding="UTF-8" standalone="no"?>
<svg
   xmlns:dc="http://purl.org/dc/elements/1.1/"
   xmlns:cc="http://creativecommons.org/ns#"
   xmlns:rdf="http://www.w3.org/1999/02/22-rdf-syntax-ns#"
   xmlns:svg="http://www.w3.org/2000/svg"
   xmlns="http://www.w3.org/2000/svg"
   viewBox="0 0 619.91626 132.69376"
   height="132.69376"
   width="619.91626"
   xml:space="preserve"
   version="1.1"
   id="svg2"><metadata
     id="metadata8"><rdf:RDF><cc:Work
         rdf:about=""><dc:format>image/svg+xml</dc:format><dc:type
           rdf:resource="http://purl.org/dc/dcmitype/StillImage" /></cc:Work></rdf:RDF></metadata><defs
     id="defs6"><clipPath
       id="clipPath16"
       clipPathUnits="userSpaceOnUse"><path
         id="path18"
         d="m 0,106.155 495.933,0 L 495.933,0 0,0 0,106.155 Z" /></clipPath></defs><g
     transform="matrix(1.25,0,0,-1.25,0,132.69375)"
     id="g10"><g
       id="g12"><g
         clip-path="url(#clipPath16)"
         id="g14"><g
           transform="translate(27.6021,57.2627)"
           id="g20"><path
             id="path22"
             style="fill:#000101;fill-opacity:1;fill-rule:nonzero;stroke:#1d1d1b;stroke-width:1.04299998;stroke-linecap:butt;stroke-linejoin:miter;stroke-miterlimit:10;stroke-dasharray:none;stroke-opacity:1"
             d="m 0,0 c -2.224,-14.041 7.374,-27.218 21.473,-29.431 14.099,-2.215 27.298,7.4 29.523,21.444 2.222,14.041 -7.402,27.186 -21.474,29.373 -5.769,0.896 -11.369,-0.169 -16.155,-2.691 l 1.098,-1.514 c 4.363,2.271 9.485,3.195 14.747,2.383 C 42.298,17.518 51.192,5.354 49.138,-7.679 47.083,-20.712 34.87,-29.626 21.755,-27.581 8.668,-25.534 -0.225,-13.314 1.83,-0.281 2.196,2.074 2.898,4.289 3.884,6.307 L 2.224,7.146 C 1.154,4.933 0.395,2.551 0,0" /></g><g
           transform="translate(28.7373,55.4087)"
           id="g24"><path
             id="path26"
             style="fill:#000101;fill-opacity:1;fill-rule:nonzero;stroke:none"
             d="m 0,0 c -0.107,-1.064 -0.107,-2.155 -0.054,-3.218 l 3.179,0.292 c -0.107,2.872 0.374,5.8 1.496,8.619 L 1.709,7.023 C 0.774,4.709 0.213,2.341 0,0" /></g><g
           transform="translate(28.8706,49.9277)"
           id="g28"><path
             id="path30"
             style="fill:#000101;fill-opacity:1;fill-rule:nonzero;stroke:none"
             d="m 0,0 c 0.481,-3.458 1.709,-6.811 3.606,-9.764 l 2.618,1.836 C 4.647,-5.427 3.606,-2.634 3.205,0.292 L 0,0 Z" /></g><g
           transform="translate(33.7856,38.3281)"
           id="g32"><path
             id="path34"
             style="fill:#000101;fill-opacity:1;fill-rule:nonzero;stroke:none"
             d="m 0,0 c 2.111,-2.715 4.808,-5.002 8.014,-6.678 l 1.337,2.901 c -2.699,1.41 -4.97,3.352 -6.76,5.587 L 0,0 Z" /></g><g
           transform="translate(44.4448,76.0273)"
           id="g36"><path
             id="path38"
             style="fill:#000101;fill-opacity:1;fill-rule:nonzero;stroke:none"
             d="m 0,0 1.015,-3.032 c 1.469,0.558 2.991,0.957 4.568,1.197 L 5.29,1.357 C 3.473,1.091 1.709,0.639 0,0" /></g><g
           transform="translate(43.8569,30.7188)"
           id="g40"><path
             id="path42"
             style="fill:#000101;fill-opacity:1;fill-rule:nonzero;stroke:none"
             d="M 0,0 C 3.366,-1.356 6.865,-1.942 10.312,-1.781 L 10.017,1.411 C 7.132,1.304 4.193,1.783 1.362,2.9 L 0,0 Z" /></g><g
           transform="translate(52.0044,77.5708)"
           id="g44"><path
             id="path46"
             style="fill:#000101;fill-opacity:1;fill-rule:nonzero;stroke:none"
             d="m 0,0 0.294,-3.166 c 2.885,0.106 5.824,-0.373 8.655,-1.49 l 1.335,2.9 C 6.918,-0.398 3.419,0.16 0,0" /></g><g
           transform="translate(56.1182,32.3154)"
           id="g48"><path
             id="path50"
             style="fill:#000101;fill-opacity:1;fill-rule:nonzero;stroke:none"
             d="m 0,0 0.294,-3.192 c 3.499,0.479 6.838,1.701 9.804,3.591 L 8.254,3.006 C 5.744,1.437 2.938,0.426 0,0" /></g><g
           transform="translate(63.0103,71.957)"
           id="g52"><path
             id="path54"
             style="fill:#000101;fill-opacity:1;fill-rule:nonzero;stroke:none"
             d="m 0,0 c 2.698,-1.41 4.969,-3.353 6.759,-5.613 l 2.617,1.835 C 7.267,-1.09 4.568,1.224 1.336,2.874 L 0,0 Z" /></g><g
           transform="translate(66.2427,36.626)"
           id="g56"><path
             id="path58"
             style="fill:#000101;fill-opacity:1;fill-rule:nonzero;stroke:none"
             d="M 0,0 1.843,-2.607 C 4.568,-0.506 6.866,2.181 8.549,5.4 L 5.636,6.73 C 4.193,4.044 2.27,1.782 0,0" /></g><g
           transform="translate(71.0776,64.5073)"
           id="g60"><path
             id="path62"
             style="fill:#000101;fill-opacity:1;fill-rule:nonzero;stroke:none"
             d="m 0,0 c 1.576,-2.501 2.618,-5.294 3.045,-8.221 l 3.206,0.293 C 5.77,-4.443 4.542,-1.117 2.645,1.836 L 0,0 Z" /></g><g
           transform="translate(72.8145,45.4053)"
           id="g64"><path
             id="path66"
             style="fill:#000101;fill-opacity:1;fill-rule:nonzero;stroke:none"
             d="M 0,0 2.912,-1.33 C 4.273,2.022 4.861,5.507 4.701,8.939 L 1.496,8.646 C 1.603,5.773 1.122,2.82 0,0" /></g><g
           transform="translate(14.4556,46.459)"
           id="g68"><path
             id="path70"
             style="fill:#000101;fill-opacity:1;fill-rule:nonzero;stroke:none"
             d="m 0,0 c 0.775,-4.496 2.324,-8.675 4.461,-12.426 l -1.442,-0.239 -0.615,-0.106 0.295,-0.532 c 8.227,-14.473 25.003,-22.962 42.394,-19.955 22.092,3.832 36.945,24.85 33.097,46.853 -1.308,7.449 -4.567,14.048 -9.189,19.369 L 68.681,33.336 68.36,32.99 67.719,32.298 C 62.296,38.417 55.03,42.754 46.936,44.563 l -0.882,0.16 c -4.594,0.931 -9.456,1.011 -14.345,0.16 -6.171,-1.064 -11.753,-3.539 -16.482,-7.024 l 1.122,-1.384 c 3.659,2.691 6.319,3.647 6.34,3.586 0.049,-0.146 0.629,-1.197 0.629,-1.197 2.724,1.25 5.904,2.5 9.002,3.032 19.262,3.352 38.114,-9.467 41.517,-29.143 1.391,-8.039 -0.201,-16.173 -3.753,-22.851 l -1.011,0.453 c 3.5,6.518 4.899,14.38 3.558,22.259 C 69.444,31.331 51.253,44.092 32.398,40.736 31.17,40.517 29.941,40.23 28.765,39.91 l 0.274,-0.987 c 1.175,0.346 2.377,0.612 3.605,0.825 18.352,3.192 35.823,-9.046 39.029,-27.324 2.751,-15.67 -5.903,-30.702 -20.008,-36.689 l 0.213,-2.047 -4.007,-1.411 -1.095,1.808 c -0.828,-0.212 -1.683,-0.397 -2.537,-0.532 -0.374,-0.079 -0.776,-0.132 -1.15,-0.186 l -0.347,-2.049 -4.221,-0.318 -0.587,2.022 c -1.176,0.027 -2.351,0.107 -3.5,0.238 l -0.855,-1.888 -4.167,0.771 -0.054,2.102 C 17.23,-22.375 7.534,-12.318 5.209,0.851 3.74,9.178 5.503,17.346 9.591,24.051 L 8.097,24.757 C 4.323,17.92 3.82,14.073 3.82,14.073 L 2.993,14.26 C 2.03,9.844 1.898,5.187 2.725,0.452 4.114,-7.503 8.042,-14.395 13.517,-19.555 L 12.93,-20.273 C 7.293,-14.98 3.233,-7.902 1.816,0.292 0.588,7.396 1.47,14.366 4.007,20.592 L 2.458,21.549 C 1.816,20.033 1.283,18.463 0.829,16.84 L 0.561,15.936 C -0.694,10.881 -0.961,5.453 0,0" /></g><g
           transform="translate(18.249,33.0225)"
           id="g72"><path
             id="path74"
             style="fill:#000101;fill-opacity:1;fill-rule:nonzero;stroke:none"
             d="m 0,0 1.149,0.186 c 8.041,-13.409 23.802,-21.205 40.15,-18.358 21.21,3.672 35.396,23.786 31.709,44.91 -1.228,6.998 -4.247,13.223 -8.548,18.305 l 0.374,0.399 C 69.188,40.281 72.261,33.975 73.516,26.845 77.282,5.295 62.777,-15.271 41.139,-19.021 24.336,-21.923 8.148,-13.835 0,0" /></g><g
           transform="translate(74.5347,24.1904)"
           id="g76"><path
             id="path78"
             style="fill:#000101;fill-opacity:1;fill-rule:nonzero;stroke:none"
             d="M 0,0 C 2.564,1.915 4.861,4.149 6.838,6.651 L 7.667,6.225 C 5.664,3.645 3.313,1.33 0.667,-0.64 L 0,0 Z" /></g><g
           transform="translate(1.6831,52.8906)"
           id="g80"><path
             id="path82"
             style="fill:#000101;fill-opacity:1;fill-rule:nonzero;stroke:none"
             d="m 0,0 c 0.08,-28.068 22.947,-50.763 51.13,-50.763 28.236,0 51.156,22.801 51.156,50.924 0,28.121 -22.893,50.948 -51.129,50.948 -2.218,0 -4.382,-0.133 -6.519,-0.399 l 1.175,-4.469 c 1.791,0.212 3.58,0.319 5.424,0.319 9.909,0 19.099,-3.086 26.66,-8.328 l -1.043,-1.117 c -7.292,5.001 -16.107,7.901 -25.617,7.901 -1.71,0 -3.367,-0.106 -5.023,-0.265 l 0.294,-1.064 c 1.522,0.159 3.072,0.239 4.621,0.239 24.256,0 43.918,-19.582 43.918,-43.739 0,-19.156 -12.396,-35.465 -29.626,-41.345 l 0.694,-1.409 c 2.246,0.771 4.382,1.729 6.466,2.819 l 0.72,-1.011 c -6.572,-3.511 -14.077,-5.508 -22.037,-5.508 -8.55,0 -16.537,2.289 -23.429,6.28 l 0.748,0.984 c 5.797,-3.352 12.395,-5.454 19.447,-5.933 l 0,1.543 C 25.298,-41.796 7.319,-22.961 7.239,0.054 l -1.229,0 0,-0.054 c 0,-9.045 2.672,-17.479 7.293,-24.556 l -0.989,-0.851 C 7.479,-18.117 4.648,-9.364 4.621,0.027 L 0,0 Z" /></g><g
           transform="translate(15.0127,25.7275)"
           id="g84"><path
             id="path86"
             style="fill:#000101;fill-opacity:1;fill-rule:nonzero;stroke:none"
             d="M 0,0 1.229,0.904 C 2.751,-1.198 4.461,-3.14 6.305,-4.949 L 5.236,-6.014 C 3.313,-4.15 1.549,-2.156 0,0" /></g><g
           transform="translate(21.3438,18.6504)"
           id="g88"><path
             id="path90"
             style="fill:#000101;fill-opacity:1;fill-rule:nonzero;stroke:none"
             d="m 0,0 1.016,1.145 c 1.922,-1.73 3.98,-3.327 6.171,-4.71 L 6.359,-4.842 C 4.115,-3.406 1.977,-1.782 0,0" /></g><g
           transform="translate(27.7822,10.5879)"
           id="g92"><path
             id="path94"
             style="fill:#000101;fill-opacity:1;fill-rule:nonzero;stroke:none"
             d="m 0,0 0.347,0.452 c 7.266,-4.282 15.761,-6.731 24.791,-6.731 8.467,0 16.428,2.157 23.373,5.934 l 0.321,-0.452 C 41.807,-4.655 33.712,-6.863 25.11,-6.863 15.975,-6.863 7.373,-4.337 0,0" /></g><g
           transform="translate(79.4995,16.709)"
           id="g96"><path
             id="path98"
             style="fill:#000101;fill-opacity:1;fill-rule:nonzero;stroke:none"
             d="M 0,0 C 2.083,1.516 4.06,3.219 5.85,5.081 L 6.919,4.016 C 5.076,2.102 3.045,0.372 0.908,-1.198 L 0,0 Z" /></g><g
           transform="translate(83.1855,86.4399)"
           id="g100"><path
             id="path102"
             style="fill:#000101;fill-opacity:1;fill-rule:nonzero;stroke:none"
             d="M 0,0 1.042,1.118 C 3.019,-0.666 4.835,-2.607 6.465,-4.709 L 5.289,-5.667 C 3.688,-3.618 1.923,-1.729 0,0" /></g><g
           transform="translate(90.0249,27.0576)"
           id="g104"><path
             id="path106"
             style="fill:#000101;fill-opacity:1;fill-rule:nonzero;stroke:none"
             d="m 0,0 c 5.128,7.289 8.121,16.202 8.121,25.78 0,7.823 -2.004,15.165 -5.503,21.577 L 3.82,48.208 C 7.453,41.61 9.51,34.001 9.51,25.94 9.51,15.937 6.331,6.704 0.961,-0.879 L 0,0 Z" /></g><g
           transform="translate(92.6694,24.6631)"
           id="g108"><path
             id="path110"
             style="fill:#000101;fill-opacity:1;fill-rule:nonzero;stroke:none"
             d="m 0,0 c 5.77,7.981 9.162,17.772 9.162,28.361 0,8.567 -2.217,16.601 -6.117,23.599 l 0.267,0.186 C 7.293,45.069 9.59,36.875 9.59,28.174 9.59,17.533 6.17,7.688 0.401,-0.347 L 0,0 Z" /></g><g
           transform="translate(4.0337,52.811)"
           id="g112"><path
             id="path114"
             style="fill:#000101;fill-opacity:1;fill-rule:nonzero;stroke:none"
             d="M 0,0 0.774,0" /></g><g
           transform="translate(5.5034,52.811)"
           id="g116"><path
             id="path118"
             style="fill:#000101;fill-opacity:1;fill-rule:nonzero;stroke:none"
             d="M 0,0 0.828,0" /></g><g
           transform="translate(2.1372,36.5557)"
           id="g120"><path
             id="path122"
             style="fill:#000101;fill-opacity:1;fill-rule:nonzero;stroke:none"
             d="M 0,0 2.564,1.675 4.541,-3.592 1.496,-3.99 0,0 Z" /></g><g
           transform="translate(0,45.708)"
           id="g124"><path
             id="path126"
             style="fill:#000101;fill-opacity:1;fill-rule:nonzero;stroke:none"
             d="M 0,0 2.831,1.197 3.847,-4.336 0.775,-4.204 0,0 Z" /></g><g
           transform="translate(5.5566,28.4678)"
           id="g128"><path
             id="path130"
             style="fill:#000101;fill-opacity:1;fill-rule:nonzero;stroke:none"
             d="M 0,0 2.271,2.075 5.102,-2.821 2.164,-3.726 0,0 Z" /></g><g
           transform="translate(37.1318,2.2881)"
           id="g132"><path
             id="path134"
             style="fill:#000101;fill-opacity:1;fill-rule:nonzero;stroke:none"
             d="M 0,0 0.107,3.061 5.583,1.623 4.167,-1.091 0,0 Z" /></g><g
           transform="translate(28.397,5.8535)"
           id="g136"><path
             id="path138"
             style="fill:#000101;fill-opacity:1;fill-rule:nonzero;stroke:none"
             d="M 0,0 0.64,2.979 5.77,0.612 3.899,-1.81 0,0 Z" /></g><g
           transform="translate(45.7339,0.4268)"
           id="g140"><path
             id="path142"
             style="fill:#000101;fill-opacity:1;fill-rule:nonzero;stroke:none"
             d="M 0,0 -0.401,3.031 5.236,2.499 4.273,-0.399 0,0 Z" /></g><g
           transform="translate(64.8071,1.3037)"
           id="g144"><path
             id="path146"
             style="fill:#000101;fill-opacity:1;fill-rule:nonzero;stroke:none"
             d="M 0,0 -1.442,2.713 4.006,4.204 4.141,1.144 0,0 Z" /></g><g
           transform="translate(55.4575,0)"
           id="g148"><path
             id="path150"
             style="fill:#000101;fill-opacity:1;fill-rule:nonzero;stroke:none"
             d="M 0,0 -0.936,2.9 4.701,3.405 4.3,0.373 0,0 Z" /></g><g
           transform="translate(73.1953,3.9648)"
           id="g152"><path
             id="path154"
             style="fill:#000101;fill-opacity:1;fill-rule:nonzero;stroke:none"
             d="M 0,0 -1.87,2.42 3.259,4.788 3.899,1.809 0,0 Z" /></g><g
           transform="translate(103.2212,35.6777)"
           id="g156"><path
             id="path158"
             style="fill:#000101;fill-opacity:1;fill-rule:nonzero;stroke:none"
             d="M 0,0 -3.072,0.213 -1.442,5.614 1.229,4.097 0,0 Z" /></g><g
           transform="translate(99.3477,27.1113)"
           id="g160"><path
             id="path162"
             style="fill:#000101;fill-opacity:1;fill-rule:nonzero;stroke:none"
             d="M 0,0 -2.966,0.745 -0.401,5.773 1.977,3.831 0,0 Z" /></g><g
           transform="translate(105.4121,44.165)"
           id="g164"><path
             id="path166"
             style="fill:#000101;fill-opacity:1;fill-rule:nonzero;stroke:none"
             d="M 0,0 -3.046,-0.293 -2.325,5.295 0.56,4.257 0,0 Z" /></g><g
           transform="translate(105.2246,62.9209)"
           id="g168"><path
             id="path170"
             style="fill:#000101;fill-opacity:1;fill-rule:nonzero;stroke:none"
             d="M 0,0 -2.779,-1.33 -4.061,4.15 -0.989,4.177 0,0 Z" /></g><g
           transform="translate(106.1597,53.5562)"
           id="g172"><path
             id="path174"
             style="fill:#000101;fill-opacity:1;fill-rule:nonzero;stroke:none"
             d="M 0,0 -2.965,-0.825 -3.259,4.789 -0.241,4.257 0,0 Z" /></g><g
           transform="translate(102.8735,71.355)"
           id="g176"><path
             id="path178"
             style="fill:#000101;fill-opacity:1;fill-rule:nonzero;stroke:none"
             d="M 0,0 -2.511,-1.756 -4.675,3.459 -1.656,3.991 0,0 Z" /></g><g
           transform="translate(71.7793,102.6963)"
           id="g180"><path
             id="path182"
             style="fill:#000101;fill-opacity:1;fill-rule:nonzero;stroke:none"
             d="M 0,0 -0.321,-3.033 -5.69,-1.25 -4.087,1.357 0,0 Z" /></g><g
           transform="translate(80.2739,98.5986)"
           id="g184"><path
             id="path186"
             style="fill:#000101;fill-opacity:1;fill-rule:nonzero;stroke:none"
             d="m 0,0 -0.854,-2.953 -4.969,2.687 2.03,2.288 L 0,0 Z" /></g><g
           transform="translate(63.311,105.1172)"
           id="g188"><path
             id="path190"
             style="fill:#000101;fill-opacity:1;fill-rule:nonzero;stroke:none"
             d="M 0,0 0.187,-3.059 -5.396,-2.182 -4.248,0.666 0,0 Z" /></g><g
           transform="translate(53.9351,106.1548)"
           id="g192"><path
             id="path194"
             style="fill:#000101;fill-opacity:1;fill-rule:nonzero;stroke:none"
             d="M 0,0 0.747,-2.979 -4.916,-3.086 -4.302,-0.08 0,0 Z" /></g><path
           id="path196"
           style="fill:#1d1d1b;fill-opacity:1;fill-rule:nonzero;stroke:none"
           d="m 327.267,26.517 168.666,0 0,53.396 -168.666,0 0,-53.396 z" /><g
           transform="translate(126.1865,40.5625)"
           id="g198"><path
             id="path200"
             style="fill:#1d1d1b;fill-opacity:1;fill-rule:nonzero;stroke:none"
             d="m 0,0 c 2.494,0 4.217,0.653 4.217,2.613 0,2.02 -2.317,2.673 -5.286,3.563 -4.693,1.368 -10.335,3.089 -10.335,10.218 0,5.998 4.87,9.681 11.463,9.681 4.158,0 7.839,-0.475 11.404,-2.614 L 9.087,17.344 c -2.554,1.187 -5.108,1.781 -8.196,1.781 -2.198,0 -3.98,-0.653 -3.98,-2.612 0,-1.961 2.197,-2.614 5.524,-3.564 4.871,-1.367 10.215,-3.15 10.215,-9.86 0,-6.653 -4.572,-9.8 -11.818,-9.8 -5.406,0 -9.504,0.95 -12.89,2.969 L -9.8,2.436 C -6.534,0.891 -3.089,0 0,0" /></g><g
           transform="translate(152.9746,33.2568)"
           id="g202"><path
             id="path204"
             style="fill:#1d1d1b;fill-opacity:1;fill-rule:nonzero;stroke:none"
             d="m 0,0 c -5.821,3.267 -6.653,9.741 -6.653,15.681 l 0,10.572 -4.574,0 0,6.414 4.574,0 0,8.91 8.673,1.069 0,-9.979 6.474,0 -0.773,-6.414 -5.701,0 0,-10.751 c 0,-4.753 0.89,-8.256 3.8,-11.463 L 0,0 Z" /></g><g
           transform="translate(165.8042,34.5635)"
           id="g206"><path
             id="path208"
             style="fill:#1d1d1b;fill-opacity:1;fill-rule:nonzero;stroke:none"
             d="m 0,0 0,19.363 c 0,3.623 -0.06,7.425 -0.832,10.989 l 6.772,1.663 c 0.712,-1.723 1.365,-3.683 1.84,-5.524 1.604,2.91 4.218,5.108 9.088,5.582 l 1.128,-9.027 -0.891,0 c -4.276,0 -6.71,-1.307 -8.434,-4.633 L 8.671,0 0,0 Z" /></g><g
           transform="translate(205.1245,44.7207)"
           id="g210"><path
             id="path212"
             style="fill:#1d1d1b;fill-opacity:1;fill-rule:nonzero;stroke:none"
             d="m 0,0 c -1.188,-2.555 -2.673,-4.158 -5.643,-4.158 -3.386,0 -4.513,0.95 -4.513,3.266 0,2.555 2.672,3.861 10.156,4.278 L 0,0 Z m 8.672,1.84 0,7.722 c 0,7.484 -4.99,12.355 -13.246,12.355 -4.692,0 -8.909,-0.832 -12.651,-2.97 l 2.614,-6.356 c 2.731,1.366 5.701,2.138 8.671,2.138 3.445,0 5.702,-1.128 5.94,-5.642 -15.146,-0.891 -18.828,-4.157 -18.828,-10.275 0,-5.881 3.088,-9.681 10.988,-9.681 4.692,0 7.365,1.78 9.087,4.691 0.357,-1.545 0.891,-3.147 1.485,-4.633 l 6.771,1.664 C 8.731,-5.585 8.672,-1.783 8.672,1.84" /></g><g
           transform="translate(220.2119,73.8833)"
           id="g214"><path
             id="path216"
             style="fill:#1d1d1b;fill-opacity:1;fill-rule:nonzero;stroke:none"
             d="m 0,0 c 0,3.089 1.9,4.396 5.108,4.396 3.207,0 5.108,-1.307 5.108,-4.396 0,-3.147 -1.901,-4.396 -5.108,-4.396 C 1.9,-4.396 0,-3.147 0,0" /></g><g
           transform="translate(222.291,34.5635)"
           id="g218"><path
             id="path220"
             style="fill:#1d1d1b;fill-opacity:1;fill-rule:nonzero;stroke:none"
             d="m 0,0 c -1.129,2.909 -1.307,6.711 -1.307,10.75 l 0,19.602 8.671,1.009 0,-21.204 C 7.364,6.949 7.425,2.79 8.137,0 L 0,0 Z" /></g><g
           transform="translate(255.373,46.9766)"
           id="g222"><path
             id="path224"
             style="fill:#1d1d1b;fill-opacity:1;fill-rule:nonzero;stroke:none"
             d="m 0,0 c -1.366,-2.197 -2.852,-3.505 -5.584,-3.505 -4.455,0 -5.285,3.089 -5.285,8.078 0,6.118 2.02,8.198 5.879,8.198 1.604,0 3.326,-0.119 4.99,-0.713 L 0,0 Z m -4.93,19.661 c -9.444,0 -14.67,-3.861 -14.67,-14.968 0,-10.81 4.217,-15.027 10.989,-15.027 4.453,0 6.829,1.366 8.611,4.633 l 0,-1.723 c 0,-6.118 -2.674,-7.602 -6.771,-7.602 -2.257,0 -4.691,0.356 -6.711,1.128 l -1.723,-6.712 c 2.97,-1.187 6.059,-1.663 8.85,-1.663 9.206,0 15.026,5.405 15.026,15.086 l 0,24.947 C 4.274,19.126 0,19.661 -4.93,19.661" /></g><g
           transform="translate(289.9424,34.5635)"
           id="g226"><path
             id="path228"
             style="fill:#1d1d1b;fill-opacity:1;fill-rule:nonzero;stroke:none"
             d="m 0,0 0,17.284 c 0,5.346 -1.069,7.722 -4.455,7.722 -3.089,0 -4.455,-1.248 -5.821,-3.683 l 0,-21.323 -8.672,0 0,41.577 8.672,1.069 0,-14.908 c 1.604,3.089 4.277,4.335 8.613,4.335 9.147,0 10.335,-7.186 10.335,-13.601 L 8.672,0 0,0 Z" /></g><g
           transform="translate(314.4727,33.2568)"
           id="g230"><path
             id="path232"
             style="fill:#1d1d1b;fill-opacity:1;fill-rule:nonzero;stroke:none"
             d="m 0,0 c -5.82,3.267 -6.652,9.741 -6.652,15.681 l 0,10.572 -4.574,0 0,6.414 4.574,0 0,8.91 8.672,1.069 0,-9.979 6.473,0 -0.771,-6.414 -5.702,0 0,-10.751 C 2.02,10.749 2.91,7.246 5.821,4.039 L 0,0 Z" /></g><g
           transform="translate(342.3857,34.2666)"
           id="g234"><path
             id="path236"
             style="fill:#ffffff;fill-opacity:1;fill-rule:nonzero;stroke:none"
             d="M 0,0 -10.096,30.352 -7.603,30.827 1.366,2.554 10.395,30.827 12.712,30.292 2.733,0 0,0 Z" /></g><g
           transform="translate(360.6221,73.1108)"
           id="g238"><path
             id="path240"
             style="fill:#ffffff;fill-opacity:1;fill-rule:nonzero;stroke:none"
             d="M 0,0 C 0,1.128 0.653,1.663 1.782,1.663 2.91,1.663 3.563,1.128 3.563,0 3.563,-1.128 2.91,-1.663 1.782,-1.663 0.653,-1.663 0,-1.128 0,0" /></g><g
           transform="translate(362.2256,34.5635)"
           id="g242"><path
             id="path244"
             style="fill:#ffffff;fill-opacity:1;fill-rule:nonzero;stroke:none"
             d="m 0,0 c -0.832,2.909 -1.01,6.534 -1.01,10.513 l 0,19.423 2.376,0.356 0,-19.897 C 1.366,6.711 1.545,2.909 2.376,0 L 0,0 Z" /></g><g
           transform="translate(381.4102,35.9893)"
           id="g246"><path
             id="path248"
             style="fill:#ffffff;fill-opacity:1;fill-rule:nonzero;stroke:none"
             d="m 0,0 c 3.98,0 7.604,1.604 7.604,6.593 0,4.156 -3.743,5.106 -8.316,6.355 -4.811,1.306 -8.851,3.03 -8.851,8.73 0,5.703 4.515,7.901 9.385,7.901 2.792,0 5.644,-0.297 8.317,-1.663 l -0.893,-2.02 c -2.196,1.128 -4.75,1.544 -7.365,1.544 -4.038,0 -7.126,-1.307 -7.126,-5.819 0,-3.921 2.79,-5.168 7.543,-6.475 5.168,-1.485 9.622,-2.793 9.622,-8.553 0,-6.414 -4.574,-8.731 -9.801,-8.731 -4.039,0 -7.722,0.772 -10.749,2.791 l 1.008,1.96 C -7.008,0.95 -3.563,0 0,0" /></g><g
           transform="translate(397.8652,73.1108)"
           id="g250"><path
             id="path252"
             style="fill:#ffffff;fill-opacity:1;fill-rule:nonzero;stroke:none"
             d="M 0,0 C 0,1.128 0.653,1.663 1.782,1.663 2.909,1.663 3.563,1.128 3.563,0 3.563,-1.128 2.909,-1.663 1.782,-1.663 0.653,-1.663 0,-1.128 0,0" /></g><g
           transform="translate(399.4687,34.5635)"
           id="g254"><path
             id="path256"
             style="fill:#ffffff;fill-opacity:1;fill-rule:nonzero;stroke:none"
             d="m 0,0 c -0.833,2.909 -1.011,6.534 -1.011,10.513 l 0,19.423 2.377,0.356 0,-19.897 C 1.366,6.711 1.545,2.909 2.375,0 L 0,0 Z" /></g><g
           transform="translate(421.2666,35.9893)"
           id="g258"><path
             id="path260"
             style="fill:#ffffff;fill-opacity:1;fill-rule:nonzero;stroke:none"
             d="m 0,0 c -8.554,0 -10.275,5.465 -10.275,13.72 0,8.256 1.721,13.721 10.275,13.721 8.553,0 10.275,-5.465 10.275,-13.721 C 10.275,5.465 8.553,0 0,0 m 0,29.579 c -9.088,0 -12.651,-5.049 -12.651,-15.859 0,-10.81 3.563,-15.859 12.651,-15.859 9.087,0 12.651,5.049 12.651,15.859 0,10.81 -3.564,15.859 -12.651,15.859" /></g><g
           transform="translate(461.5977,34.5635)"
           id="g262"><path
             id="path264"
             style="fill:#ffffff;fill-opacity:1;fill-rule:nonzero;stroke:none"
             d="m 0,0 0,16.453 c 0,7.305 -1.069,12.414 -7.959,12.414 -5.168,0 -7.543,-2.674 -9.86,-7.306 l 0,-21.561 -2.374,0 0,22.392 c 0,2.614 -0.297,5.405 -0.951,7.781 l 2.078,0.357 c 0.594,-1.604 0.95,-3.505 1.069,-5.524 2.078,3.623 4.812,5.999 10.394,5.999 8.733,0 9.979,-7.365 9.979,-13.84 L 2.376,0 0,0 Z" /></g><g
           transform="translate(481.0205,35.9893)"
           id="g266"><path
             id="path268"
             style="fill:#ffffff;fill-opacity:1;fill-rule:nonzero;stroke:none"
             d="m 0,0 c 3.979,0 7.604,1.604 7.604,6.593 0,4.156 -3.743,5.106 -8.317,6.355 -4.811,1.306 -8.85,3.03 -8.85,8.73 0,5.703 4.514,7.901 9.385,7.901 2.792,0 5.643,-0.297 8.316,-1.663 l -0.892,-2.02 c -2.197,1.128 -4.75,1.544 -7.365,1.544 -4.039,0 -7.126,-1.307 -7.126,-5.819 0,-3.921 2.79,-5.168 7.542,-6.475 5.168,-1.485 9.623,-2.793 9.623,-8.553 0,-6.414 -4.575,-8.731 -9.801,-8.731 -4.04,0 -7.722,0.772 -10.75,2.791 l 1.009,1.96 C -7.009,0.95 -3.563,0 0,0" /></g></g></g></g></svg>